<?xml version="1.0" encoding="UTF-8" standalone="no"?>
<svg
   height="173.30mm"
   viewBox="0.0 0.0 153.90 173.30"
   width="153.90mm"
   version="1.1"
   id="svg7"
   sodipodi:docname="box_port-back.svg"
   inkscape:version="1.4 (86a8ad7, 2024-10-11)"
   xmlns:inkscape="http://www.inkscape.org/namespaces/inkscape"
   xmlns:sodipodi="http://sodipodi.sourceforge.net/DTD/sodipodi-0.dtd"
   xmlns="http://www.w3.org/2000/svg"
   xmlns:svg="http://www.w3.org/2000/svg"
   xmlns:rdf="http://www.w3.org/1999/02/22-rdf-syntax-ns#"
   xmlns:cc="http://creativecommons.org/ns#"
   xmlns:dc="http://purl.org/dc/elements/1.1/">
  <defs
     id="defs7" />
  <sodipodi:namedview
     id="namedview7"
     pagecolor="#505050"
     bordercolor="#ffffff"
     borderopacity="1"
     inkscape:showpageshadow="0"
     inkscape:pageopacity="0"
     inkscape:pagecheckerboard="1"
     inkscape:deskcolor="#505050"
     inkscape:document-units="mm"
     inkscape:zoom="0.8928005"
     inkscape:cx="164.65045"
     inkscape:cy="197.69254"
     inkscape:window-width="1920"
     inkscape:window-height="1009"
     inkscape:window-x="-8"
     inkscape:window-y="-8"
     inkscape:window-maximized="1"
     inkscape:current-layer="svg7" />
  <!--
ClosedBox - Fully closed box


This box is more of a building block than a finished item.
Use a vector graphics program (like Inkscape) to add holes or adjust the base
plate.

See BasedBox for variant with a base.


Created with Boxes.py (https://boxes.hackerspace-bamberg.de/)
Creation date: 2024-12-23 00:52:31
Command line (remove spaces between dashes): boxes ClosedBox - -x=60.0 - -y=40.0 - -h=40.0 - -outside=0 - -inner_corners=corner
Url: https://boxes.hackerspace-bamberg.de/ClosedBox?FingerJoint_style=rectangular&FingerJoint_surroundingspaces=2.0&FingerJoint_bottom_lip=0.0&FingerJoint_edge_width=1.0&FingerJoint_extra_length=0.0&FingerJoint_finger=2.0&FingerJoint_play=0.0&FingerJoint_space=2.0&FingerJoint_width=1.0&x=60.0&y=40.0&h=40.0&outside=0&thickness=3.0&format=svg&tabs=0.0&qr_code=0&debug=0&labels=0&labels=1&reference=100.0&inner_corners=corner&burn=0.1&language=en&render=2
Url short: https://boxes.hackerspace-bamberg.de/ClosedBox?x=60.0&y=40.0&h=40.0&outside=0&inner_corners=corner
SettingsUrl: https://boxes.hackerspace-bamberg.de/ClosedBox?FingerJoint_style=rectangular&FingerJoint_surroundingspaces=2.0&FingerJoint_bottom_lip=0.0&FingerJoint_edge_width=1.0&FingerJoint_extra_length=0.0&FingerJoint_finger=2.0&FingerJoint_play=0.0&FingerJoint_space=2.0&FingerJoint_width=1.0&x=60.0&y=40.0&h=40.0&outside=0&thickness=3.0&format=svg&tabs=0.0&qr_code=0&debug=0&labels=0&labels=1&reference=100.0&inner_corners=corner&burn=0.1&language=en&render=2
SettingsUrl short: https://boxes.hackerspace-bamberg.de/ClosedBox?x=60.0&y=40.0&h=40.0&outside=0&inner_corners=corner
-->
  <title
     id="title1">ClosedBox</title>
  <metadata
     id="metadata1">
    <rdf:RDF>
      <cc:Work>
        <dc:title>Box - ClosedBox</dc:title>
        <dc:date>2024-12-23 00:52:31</dc:date>
        <dc:source>https://boxes.hackerspace-bamberg.de/ClosedBox?FingerJoint_style=rectangular&amp;FingerJoint_surroundingspaces=2.0&amp;FingerJoint_bottom_lip=0.0&amp;FingerJoint_edge_width=1.0&amp;FingerJoint_extra_length=0.0&amp;FingerJoint_finger=2.0&amp;FingerJoint_play=0.0&amp;FingerJoint_space=2.0&amp;FingerJoint_width=1.0&amp;x=60.0&amp;y=40.0&amp;h=40.0&amp;outside=0&amp;thickness=3.0&amp;format=svg&amp;tabs=0.0&amp;qr_code=0&amp;debug=0&amp;labels=0&amp;labels=1&amp;reference=100.0&amp;inner_corners=corner&amp;burn=0.1&amp;language=en&amp;render=2</dc:source>
        <dc:source>https://boxes.hackerspace-bamberg.de/ClosedBox?x=60.0&amp;y=40.0&amp;h=40.0&amp;outside=0&amp;inner_corners=corner</dc:source>
        <dc:description>Fully closed box

This box is more of a building block than a finished item.
Use a vector graphics program (like Inkscape) to add holes or adjust the base
plate.

See BasedBox for variant with a base.

Created with Boxes.py (https://boxes.hackerspace-bamberg.de/)
Command line: boxes ClosedBox --FingerJoint_style=rectangular --FingerJoint_surroundingspaces=2.0 --FingerJoint_bottom_lip=0.0 --FingerJoint_edge_width=1.0 --FingerJoint_extra_length=0.0 --FingerJoint_finger=2.0 --FingerJoint_play=0.0 --FingerJoint_space=2.0 --FingerJoint_width=1.0 --x=60.0 --y=40.0 --h=40.0 --outside=0 --thickness=3.0 --format=svg --tabs=0.0 --qr_code=0 --debug=0 --labels=0 --labels=1 --reference=100.0 --inner_corners=corner --burn=0.1
Command line short: boxes ClosedBox --x=60.0 --y=40.0 --h=40.0 --outside=0 --inner_corners=corner
Url: https://boxes.hackerspace-bamberg.de/ClosedBox?FingerJoint_style=rectangular&amp;FingerJoint_surroundingspaces=2.0&amp;FingerJoint_bottom_lip=0.0&amp;FingerJoint_edge_width=1.0&amp;FingerJoint_extra_length=0.0&amp;FingerJoint_finger=2.0&amp;FingerJoint_play=0.0&amp;FingerJoint_space=2.0&amp;FingerJoint_width=1.0&amp;x=60.0&amp;y=40.0&amp;h=40.0&amp;outside=0&amp;thickness=3.0&amp;format=svg&amp;tabs=0.0&amp;qr_code=0&amp;debug=0&amp;labels=0&amp;labels=1&amp;reference=100.0&amp;inner_corners=corner&amp;burn=0.1&amp;language=en&amp;render=2
Url short: https://boxes.hackerspace-bamberg.de/ClosedBox?x=60.0&amp;y=40.0&amp;h=40.0&amp;outside=0&amp;inner_corners=corner
SettingsUrl: https://boxes.hackerspace-bamberg.de/ClosedBox?FingerJoint_style=rectangular&amp;FingerJoint_surroundingspaces=2.0&amp;FingerJoint_bottom_lip=0.0&amp;FingerJoint_edge_width=1.0&amp;FingerJoint_extra_length=0.0&amp;FingerJoint_finger=2.0&amp;FingerJoint_play=0.0&amp;FingerJoint_space=2.0&amp;FingerJoint_width=1.0&amp;x=60.0&amp;y=40.0&amp;h=40.0&amp;outside=0&amp;thickness=3.0&amp;format=svg&amp;tabs=0.0&amp;qr_code=0&amp;debug=0&amp;labels=0&amp;labels=1&amp;reference=100.0&amp;inner_corners=corner&amp;burn=0.1&amp;language=en&amp;render=2
SettingsUrl short: https://boxes.hackerspace-bamberg.de/ClosedBox?x=60.0&amp;y=40.0&amp;h=40.0&amp;outside=0&amp;inner_corners=corner
</dc:description>
      </cc:Work>
    </rdf:RDF>
  </metadata>
  <g
     id="p-1"
     style="fill:none;stroke-linecap:round;stroke-linejoin:round;">
    <path
       d="M 13.100 151.600 H 22.100 C 22.155 151.600 22.200 151.555 22.200 151.500 V 148.600 H 28.000 V 151.500 C 28.000 151.555 28.045 151.600 28.100 151.600 H 34.100 C 34.155 151.600 34.200 151.555 34.200 151.500 V 148.600 H 40.000 V 151.500 C 40.000 151.555 40.045 151.600 40.100 151.600 H 46.100 C 46.155 151.600 46.200 151.555 46.200 151.500 V 148.600 H 52.000 V 151.500 C 52.000 151.555 52.045 151.600 52.100 151.600 H 58.100 C 58.155 151.600 58.200 151.555 58.200 151.500 V 148.600 H 64.000 V 151.500 C 64.000 151.555 64.045 151.600 64.100 151.600 H 73.100 H 76.100 C 76.155 151.600 76.200 151.555 76.200 151.500 V 148.500 V 137.500 C 76.200 137.445 76.155 137.400 76.100 137.400 H 73.200 V 131.600 H 76.100 C 76.155 131.600 76.200 131.555 76.200 131.500 V 125.500 C 76.200 125.445 76.155 125.400 76.100 125.400 H 73.200 V 119.600 H 76.100 C 76.155 119.600 76.200 119.555 76.200 119.500 V 108.500 V 105.500 C 76.200 105.445 76.155 105.400 76.100 105.400 H 73.100 H 64.100 C 64.045 105.400 64.000 105.445 64.000 105.500 V 108.400 H 58.200 V 105.500 C 58.200 105.445 58.155 105.400 58.100 105.400 H 52.100 C 52.045 105.400 52.000 105.445 52.000 105.500 V 108.400 H 46.200 V 105.500 C 46.200 105.445 46.155 105.400 46.100 105.400 H 40.100 C 40.045 105.400 40.000 105.445 40.000 105.500 V 108.400 H 34.200 V 105.500 C 34.200 105.445 34.155 105.400 34.100 105.400 H 28.100 C 28.045 105.400 28.000 105.445 28.000 105.500 V 108.400 H 22.200 V 105.500 C 22.200 105.445 22.155 105.400 22.100 105.400 H 13.100 H 10.100 C 10.045 105.400 10.000 105.445 10.000 105.500 V 108.500 V 119.500 C 10.000 119.555 10.045 119.600 10.100 119.600 H 13.000 V 125.400 H 10.100 C 10.045 125.400 10.000 125.445 10.000 125.500 V 131.500 C 10.000 131.555 10.045 131.600 10.100 131.600 H 13.000 V 137.400 H 10.100 C 10.045 137.400 10.000 137.445 10.000 137.500 V 148.500 V 151.500 C 10.000 151.555 10.045 151.600 10.100 151.600 H 13.100"
       stroke="rgb(0,0,0)"
       stroke-width="0.20"
       id="path2" />
  </g>
  <g
     id="p-2"
     style="fill:none;stroke-linecap:round;stroke-linejoin:round;">
    <path
       d="M 80.800 151.600 H 91.800 C 91.855 151.600 91.900 151.555 91.900 151.500 V 148.600 H 97.700 V 151.500 C 97.700 151.555 97.745 151.600 97.800 151.600 H 103.800 C 103.855 151.600 103.900 151.555 103.900 151.500 V 148.600 H 109.700 V 151.500 C 109.700 151.555 109.745 151.600 109.800 151.600 H 120.800 C 120.855 151.600 120.900 151.555 120.900 151.500 V 148.500 V 137.600 H 123.800 C 123.855 137.600 123.900 137.555 123.900 137.500 V 131.500 C 123.900 131.445 123.855 131.400 123.800 131.400 H 120.900 V 125.600 H 123.800 C 123.855 125.600 123.900 125.555 123.900 125.500 V 119.500 C 123.900 119.445 123.855 119.400 123.800 119.400 H 120.900 V 108.500 V 105.500 C 120.900 105.445 120.855 105.400 120.800 105.400 H 109.800 C 109.745 105.400 109.700 105.445 109.700 105.500 V 108.400 H 103.900 V 105.500 C 103.900 105.445 103.855 105.400 103.800 105.400 H 97.800 C 97.745 105.400 97.700 105.445 97.700 105.500 V 108.400 H 91.900 V 105.500 C 91.900 105.445 91.855 105.400 91.800 105.400 H 80.800 C 80.745 105.400 80.700 105.445 80.700 105.500 V 108.500 V 119.400 H 77.800 C 77.745 119.400 77.700 119.445 77.700 119.500 V 125.500 C 77.700 125.555 77.745 125.600 77.800 125.600 H 80.700 V 131.400 H 77.800 C 77.745 131.400 77.700 131.445 77.700 131.500 V 137.500 C 77.700 137.555 77.745 137.600 77.800 137.600 H 80.700 V 148.500 V 151.500 C 80.700 151.555 80.745 151.600 80.800 151.600"
       stroke="rgb(0,0,0)"
       stroke-width="0.20"
       id="path3" />
  </g>
  <g
     id="p-3"
     style="fill:none;stroke-linecap:round;stroke-linejoin:round;">
    <path
       id="rect8"
       style="stroke:#000000;stroke-width:0.2;stroke-linecap:butt;stroke-linejoin:miter"
       inkscape:label="usb_c_port"
       d="m 39.830001,139.37 h 6.539998 c 0.6648,0 1.2,0.5352 1.2,1.2 v 0.86 c 0,0.6648 -0.5352,1.2 -1.2,1.2 h -6.539998 c -0.6648,0 -1.2,-0.5352 -1.2,-1.2 v -0.86 c 0,-0.6648 0.5352,-1.2 1.2,-1.2 z" />
    <path
       d="M 80.800 103.900 H 91.800 C 91.855 103.900 91.900 103.855 91.900 103.800 V 100.900 H 97.700 V 103.800 C 97.700 103.855 97.745 103.900 97.800 103.900 H 103.800 C 103.855 103.900 103.900 103.855 103.900 103.800 V 100.900 H 109.700 V 103.800 C 109.700 103.855 109.745 103.900 109.800 103.900 H 120.800 C 120.855 103.900 120.900 103.855 120.900 103.800 V 100.800 V 89.900 H 123.800 C 123.855 89.900 123.900 89.855 123.900 89.800 V 83.800 C 123.900 83.745 123.855 83.700 123.800 83.700 H 120.900 V 77.900 H 123.800 C 123.855 77.900 123.900 77.855 123.900 77.800 V 71.800 C 123.900 71.745 123.855 71.700 123.800 71.700 H 120.900 V 60.800 V 57.800 C 120.900 57.745 120.855 57.700 120.800 57.700 H 109.800 C 109.745 57.700 109.700 57.745 109.700 57.800 V 60.700 H 103.900 V 57.800 C 103.900 57.745 103.855 57.700 103.800 57.700 H 97.800 C 97.745 57.700 97.700 57.745 97.700 57.800 V 60.700 H 91.900 V 57.800 C 91.900 57.745 91.855 57.700 91.800 57.700 H 80.800 C 80.745 57.700 80.700 57.745 80.700 57.800 V 60.800 V 71.700 H 77.800 C 77.745 71.700 77.700 71.745 77.700 71.800 V 77.800 C 77.700 77.855 77.745 77.900 77.800 77.900 H 80.700 V 83.700 H 77.800 C 77.745 83.700 77.700 83.745 77.700 83.800 V 89.800 C 77.700 89.855 77.745 89.900 77.800 89.900 H 80.700 V 100.800 V 103.800 C 80.700 103.855 80.745 103.900 80.800 103.900"
       stroke="rgb(0,0,0)"
       stroke-width="0.20"
       id="path4" />
  </g>
  <g
     id="p-4"
     style="fill:none;stroke-linecap:round;stroke-linejoin:round;">
    <path
       id="rect7"
       style="stroke:#000000;stroke-width:0.198684;stroke-linecap:butt;stroke-linejoin:miter"
       inkscape:label="display_cutout"
       d="M 17.949342,71.312559 H 68.250658 V 90.287441 H 17.949342 Z" />
    <path
       d="M 13.100 103.900 H 22.100 C 22.155 103.900 22.200 103.855 22.200 103.800 V 100.900 H 28.000 V 103.800 C 28.000 103.855 28.045 103.900 28.100 103.900 H 34.100 C 34.155 103.900 34.200 103.855 34.200 103.800 V 100.900 H 40.000 V 103.800 C 40.000 103.855 40.045 103.900 40.100 103.900 H 46.100 C 46.155 103.900 46.200 103.855 46.200 103.800 V 100.900 H 52.000 V 103.800 C 52.000 103.855 52.045 103.900 52.100 103.900 H 58.100 C 58.155 103.900 58.200 103.855 58.200 103.800 V 100.900 H 64.000 V 103.800 C 64.000 103.855 64.045 103.900 64.100 103.900 H 73.100 H 76.100 C 76.155 103.900 76.200 103.855 76.200 103.800 V 100.800 V 89.800 C 76.200 89.745 76.155 89.700 76.100 89.700 H 73.200 V 83.900 H 76.100 C 76.155 83.900 76.200 83.855 76.200 83.800 V 77.800 C 76.200 77.745 76.155 77.700 76.100 77.700 H 73.200 V 71.900 H 76.100 C 76.155 71.900 76.200 71.855 76.200 71.800 V 60.800 V 57.800 C 76.200 57.745 76.155 57.700 76.100 57.700 H 73.100 H 64.100 C 64.045 57.700 64.000 57.745 64.000 57.800 V 60.700 H 58.200 V 57.800 C 58.200 57.745 58.155 57.700 58.100 57.700 H 52.100 C 52.045 57.700 52.000 57.745 52.000 57.800 V 60.700 H 46.200 V 57.800 C 46.200 57.745 46.155 57.700 46.100 57.700 H 40.100 C 40.045 57.700 40.000 57.745 40.000 57.800 V 60.700 H 34.200 V 57.800 C 34.200 57.745 34.155 57.700 34.100 57.700 H 28.100 C 28.045 57.700 28.000 57.745 28.000 57.800 V 60.700 H 22.200 V 57.800 C 22.200 57.745 22.155 57.700 22.100 57.700 H 13.100 H 10.100 C 10.045 57.700 10.000 57.745 10.000 57.800 V 60.800 V 71.800 C 10.000 71.855 10.045 71.900 10.100 71.900 H 13.000 V 77.700 H 10.100 C 10.045 77.700 10.000 77.745 10.000 77.800 V 83.800 C 10.000 83.855 10.045 83.900 10.100 83.900 H 13.000 V 89.700 H 10.100 C 10.045 89.700 10.000 89.745 10.000 89.800 V 100.800 V 103.800 C 10.000 103.855 10.045 103.900 10.100 103.900 H 13.100"
       stroke="rgb(0,0,0)"
       stroke-width="0.20"
       id="path5" />
  </g>
  <g
     id="p-5"
     style="fill:none;stroke-linecap:round;stroke-linejoin:round;">
    <path
       d="M 13.100 53.200 H 22.000 V 56.100 C 22.000 56.155 22.045 56.200 22.100 56.200 H 28.100 C 28.155 56.200 28.200 56.155 28.200 56.100 V 53.200 H 34.000 V 56.100 C 34.000 56.155 34.045 56.200 34.100 56.200 H 40.100 C 40.155 56.200 40.200 56.155 40.200 56.100 V 53.200 H 46.000 V 56.100 C 46.000 56.155 46.045 56.200 46.100 56.200 H 52.100 C 52.155 56.200 52.200 56.155 52.200 56.100 V 53.200 H 58.000 V 56.100 C 58.000 56.155 58.045 56.200 58.100 56.200 H 64.100 C 64.155 56.200 64.200 56.155 64.200 56.100 V 53.200 H 73.100 C 73.155 53.200 73.200 53.155 73.200 53.100 V 42.200 H 76.100 C 76.155 42.200 76.200 42.155 76.200 42.100 V 36.100 C 76.200 36.045 76.155 36.000 76.100 36.000 H 73.200 V 30.200 H 76.100 C 76.155 30.200 76.200 30.155 76.200 30.100 V 24.100 C 76.200 24.045 76.155 24.000 76.100 24.000 H 73.200 V 13.100 C 73.200 13.045 73.155 13.000 73.100 13.000 H 64.200 V 10.100 C 64.200 10.045 64.155 10.000 64.100 10.000 H 58.100 C 58.045 10.000 58.000 10.045 58.000 10.100 V 13.000 H 52.200 V 10.100 C 52.200 10.045 52.155 10.000 52.100 10.000 H 46.100 C 46.045 10.000 46.000 10.045 46.000 10.100 V 13.000 H 40.200 V 10.100 C 40.200 10.045 40.155 10.000 40.100 10.000 H 34.100 C 34.045 10.000 34.000 10.045 34.000 10.100 V 13.000 H 28.200 V 10.100 C 28.200 10.045 28.155 10.000 28.100 10.000 H 22.100 C 22.045 10.000 22.000 10.045 22.000 10.100 V 13.000 H 13.100 C 13.045 13.000 13.000 13.045 13.000 13.100 V 24.000 H 10.100 C 10.045 24.000 10.000 24.045 10.000 24.100 V 30.100 C 10.000 30.155 10.045 30.200 10.100 30.200 H 13.000 V 36.000 H 10.100 C 10.045 36.000 10.000 36.045 10.000 36.100 V 42.100 C 10.000 42.155 10.045 42.200 10.100 42.200 H 13.000 V 53.100 C 13.000 53.155 13.045 53.200 13.100 53.200"
       stroke="rgb(0,0,0)"
       stroke-width="0.20"
       id="path6" />
  </g>
  <g
     id="p-6"
     style="fill:none;stroke-linecap:round;stroke-linejoin:round;">
    <path
       d="M 80.800 53.200 H 89.700 V 56.100 C 89.700 56.155 89.745 56.200 89.800 56.200 H 95.800 C 95.855 56.200 95.900 56.155 95.900 56.100 V 53.200 H 101.700 V 56.100 C 101.700 56.155 101.745 56.200 101.800 56.200 H 107.800 C 107.855 56.200 107.900 56.155 107.900 56.100 V 53.200 H 113.700 V 56.100 C 113.700 56.155 113.745 56.200 113.800 56.200 H 119.800 C 119.855 56.200 119.900 56.155 119.900 56.100 V 53.200 H 125.700 V 56.100 C 125.700 56.155 125.745 56.200 125.800 56.200 H 131.800 C 131.855 56.200 131.900 56.155 131.900 56.100 V 53.200 H 140.800 C 140.855 53.200 140.900 53.155 140.900 53.100 V 42.200 H 143.800 C 143.855 42.200 143.900 42.155 143.900 42.100 V 36.100 C 143.900 36.045 143.855 36.000 143.800 36.000 H 140.900 V 30.200 H 143.800 C 143.855 30.200 143.900 30.155 143.900 30.100 V 24.100 C 143.900 24.045 143.855 24.000 143.800 24.000 H 140.900 V 13.100 C 140.900 13.045 140.855 13.000 140.800 13.000 H 131.900 V 10.100 C 131.900 10.045 131.855 10.000 131.800 10.000 H 125.800 C 125.745 10.000 125.700 10.045 125.700 10.100 V 13.000 H 119.900 V 10.100 C 119.900 10.045 119.855 10.000 119.800 10.000 H 113.800 C 113.745 10.000 113.700 10.045 113.700 10.100 V 13.000 H 107.900 V 10.100 C 107.900 10.045 107.855 10.000 107.800 10.000 H 101.800 C 101.745 10.000 101.700 10.045 101.700 10.100 V 13.000 H 95.900 V 10.100 C 95.900 10.045 95.855 10.000 95.800 10.000 H 89.800 C 89.745 10.000 89.700 10.045 89.700 10.100 V 13.000 H 80.800 C 80.745 13.000 80.700 13.045 80.700 13.100 V 24.000 H 77.800 C 77.745 24.000 77.700 24.045 77.700 24.100 V 30.100 C 77.700 30.155 77.745 30.200 77.800 30.200 H 80.700 V 36.000 H 77.800 C 77.745 36.000 77.700 36.045 77.700 36.100 V 42.100 C 77.700 42.155 77.745 42.200 77.800 42.200 H 80.700 V 53.100 C 80.700 53.155 80.745 53.200 80.800 53.200"
       stroke="rgb(0,0,0)"
       stroke-width="0.20"
       id="path7" />
  </g>
</svg>
