<?xml version="1.0" encoding="UTF-8" standalone="no"?>
<svg
   viewBox="25 25 90000 90000"
   version="1.1"
   id="svg56"
   width="90000"
   height="90000"
   xmlns:xlink="http://www.w3.org/1999/xlink"
   xmlns="http://www.w3.org/2000/svg"
   xmlns:svg="http://www.w3.org/2000/svg">
  <defs
     id="defs56" />
  <style
     id="style1">.st1{opacity:.15}.st3{fill:#f1f1f2}.st4{fill:#231f20}.st5{fill:#808184}.st8{fill:#59595c}.st9{fill:#a7a8ab}.st10{fill:#6d6e70}.st11{fill:#221f1f}.st12{fill:#404041}.st13{fill:#58595b}.st14{fill:#bbbdbf}.st15{fill:#fff}.st16{fill:#a6a8ab}</style>
  <circle
     cx="175"
     cy="175"
     r="143.7"
     fill="#ff66aa"
     id="circle1" />
  <g
     class="st1"
     id="Triangles">
    <defs
       id="defs1">
      <circle
         id="a"
         class="st1"
         cx="175"
         cy="175"
         r="150" />
    </defs>
    <clipPath
       id="b">
      <use
         xlink:href="#a"
         overflow="visible"
         id="use1" />
    </clipPath>
    <g
       clip-path="url(#b)"
       id="g54">
      <path
         class="st3"
         d="M -81.2,336.9 175,-106.9 431.2,336.9 Z"
         id="path1" />
      <path
         class="st4"
         d="M 68.8,443.7 325,0 581.2,443.7 Z"
         id="path2" />
      <path
         class="st5"
         d="M -409.8,363.4 -153.6,-80.3 102.6,363.4 Z"
         id="path3" />
      <path
         d="M 61.4,158.2 317.6,-285.6 573.8,158.2 Z"
         fill="#929497"
         id="path4" />
      <path
         d="M -222.4,380 33.8,-63.7 290,380 Z"
         fill="#636466"
         id="path5" />
      <path
         class="st8"
         d="M -100.1,646.9 156.1,203.1 412.3,646.9 Z"
         id="path6" />
      <path
         class="st9"
         d="m -164.9,147.2 97.3,-168.5 97.3,168.5 z m 81.5,376.6 97.3,-168.5 97.3,168.5 z"
         id="path7" />
      <path
         class="st10"
         d="M 134.3,220.8 231.6,52.3 328.9,220.8 Z"
         id="path8" />
      <path
         class="st9"
         d="M 298.7,485.7 396,317.2 493.2,485.7 Z"
         id="path9" />
      <path
         class="st8"
         d="m 108.4,621.4 48.6,-84.2 48.7,84.2 z"
         id="path10" />
      <path
         class="st11"
         d="m 278.7,305.9 48.6,-84.2 48.6,84.2 z M 46.2,400 143.5,231.5 240.8,400 Z"
         id="path11" />
      <path
         class="st5"
         d="M 108.8,-86.6 36.5,38.6 H 231.1 L 158.8,-86.6 Z m 213.2,0 -23.6,40.9 h 97.3 L 372,-86.6 Z"
         id="path12" />
      <path
         class="st12"
         d="M 35.3,332.5 132.6,164 229.9,332.5 Z"
         id="path13" />
      <path
         class="st5"
         d="m 236.1,369.2 97.2,-168.5 97.3,168.5 z"
         id="path14" />
      <path
         class="st8"
         d="m -51.9,428.8 48.1,-83.3 48.1,83.3 z"
         id="path15" />
      <path
         class="st13"
         d="m 123.2,104.8 48.1,-83.3 48.1,83.3 z"
         id="path16" />
      <path
         class="st11"
         d="M 283,90.2 331.1,6.9 379.2,90.2 Z"
         id="path17" />
      <path
         class="st5"
         d="m -61.9,331.6 24.1,-41.7 24,41.7 z"
         id="path18" />
      <path
         class="st8"
         d="m 132.5,621.6 24,-41.7 24.1,41.7 z m 84.2,-156 24,-41.7 24,41.7 z"
         id="path19" />
      <path
         class="st12"
         d="m 197.1,259.7 48.1,-83.3 48.1,83.3 z"
         id="path20" />
      <path
         class="st3"
         d="m 283,239.3 48.1,-83.3 48.1,83.3 z"
         id="path21" />
      <path
         class="st9"
         d="M -49.5,78.8 -1.4,-4.5 46.7,78.8 Z m -48.4,146.6 48.1,-83.3 48.1,83.3 z"
         id="path22" />
      <path
         class="st5"
         d="m 288.2,-20 24,-41.6 24.1,41.6 z"
         id="path23" />
      <path
         class="st14"
         d="m 187.2,116.2 24.1,-41.6 24,41.6 z"
         id="path24" />
      <path
         class="st15"
         d="m 231.9,63.8 6.4,-11 6.4,11 z"
         id="path25" />
      <path
         class="st10"
         d="M 28.9,117.8 77,34.5 l 48.1,83.3 z"
         id="path26" />
      <path
         class="st16"
         d="m 110.8,331.9 48.1,-83.3 48.1,83.3 z"
         id="path27" />
      <path
         class="st4"
         d="m 107,263.1 18.1,-31.4 18,31.4 z"
         id="path28" />
      <path
         class="st9"
         d="m 214,285.3 24,-41.7 24.1,41.7 z m -5.4,-118.1 24,-41.6 24.1,41.6 z"
         id="path29" />
      <path
         class="st3"
         d="m 226,102.8 48.1,-83.3 48,83.3 z"
         id="path30" />
      <path
         class="st16"
         d="M 1.2,143.6 49.3,60.3 97.4,143.6 Z"
         id="path31" />
      <path
         class="st8"
         d="m 14,272.2 18.3,-31.8 18.3,31.8 z"
         id="path32" />
      <path
         class="st16"
         d="m 265.4,230.6 18.3,-31.8 18.3,31.8 z"
         id="path33" />
      <path
         class="st15"
         d="M 156.7,84.8 175,53.1 193.3,84.8 Z"
         id="path34" />
      <path
         class="st13"
         d="m 156.7,282.1 18.3,-31.8 18.3,31.8 z"
         id="path35" />
      <path
         class="st8"
         d="M -19.7,88 -1.4,56.2 17,88 Z m 258.1,272.2 18.3,-31.7 18.3,31.7 z"
         id="path36" />
      <path
         class="st5"
         d="m 307.5,135.6 18.3,-31.8 18.3,31.8 z"
         id="path37" />
      <path
         class="st14"
         d="M 45.3,233.1 63.6,201.3 82,233.1 Z"
         id="path38" />
      <path
         class="st3"
         d="M 72.3,295.1 90.6,263.3 109,295.1 Z M 27.6,167.7 46,136 64.3,167.7 Z"
         id="path39" />
      <path
         class="st8"
         d="m 113.7,123.7 9.1,-15.8 9.2,15.8 z"
         id="path40" />
      <path
         class="st14"
         d="m 50.8,152.9 9.1,-15.8 9.2,15.8 z"
         id="path41" />
      <path
         d="m 107.7,84.4 9.2,-15.9 9.2,15.9 z"
         fill="#e6e7e8"
         id="path42" />
      <path
         class="st11"
         d="m 69,360.2 18.3,-31.7 18.3,31.7 z"
         id="path43" />
      <path
         class="st8"
         d="m 112.2,419.2 18.3,-31.8 18.3,31.8 z m 404.5,-131.1 18.4,-31.8 18.3,31.8 z"
         id="path44" />
      <path
         class="st5"
         d="M 187.7,61.9 206,30.1 224.4,61.9 Z"
         id="path45" />
      <path
         class="st15"
         d="M 283.4,128.2 301.7,96.5 320,128.2 Z"
         id="path46" />
      <path
         class="st8"
         d="m 316.6,622.1 9.2,-15.9 9.2,15.9 z"
         id="path47" />
      <path
         class="st9"
         d="m 262.4,411.2 9.2,-15.8 9.1,15.8 z"
         id="path48" />
      <path
         class="st8"
         d="m 577.5,394.4 9.2,-15.9 9.2,15.9 z"
         id="path49" />
      <path
         class="st5"
         d="m -97.4,339.9 18.3,-31.7 18.4,31.7 z m 375.1,-24.4 18.4,-31.8 18.3,31.8 z"
         id="path50" />
      <path
         class="st9"
         d="m 286.9,268.6 9.2,-15.9 9.1,15.9 z"
         id="path51" />
      <path
         d="m 210.1,128.5 10.9,-18.9 10.9,18.9 z"
         fill="#d0d2d3"
         id="path52" />
      <path
         class="st5"
         d="m 94.9,-41.1 9.1,-15.9 9.2,15.9 z"
         id="path53" />
      <path
         class="st8"
         d="m 386.7,121.9 18.3,-31.7 18.4,31.7 z m 76.3,214.9 9.2,-15.9 9.2,15.9 z"
         id="path54" />
    </g>
  </g>
  <path
     class="st15"
     d="M 175,25 C 92.2,25 25,92.2 25,175 25,257.8 92.2,325 175,325 257.8,325 325,257.8 325,175 325,92.2 257.8,25 175,25 Z m 0,285 C 100.4,310 40,249.6 40,175 40,100.4 100.4,40 175,40 c 74.6,0 135,60.4 135,135 0,74.6 -60.4,135 -135,135 z"
     id="path56" />
  <g
     id="g1"
     transform="translate(-17.839063,4.2410321)">
    <text
       xml:space="preserve"
       style="font-size:90px;text-align:start;writing-mode:lr-tb;direction:ltr;text-anchor:start;fill:#000000"
       x="167.3288"
       y="203.11397"
       id="text56"><tspan
         id="tspan56"
         x="167.3288"
         y="203.11397"
         style="font-style:normal;font-variant:normal;font-weight:bold;font-stretch:normal;font-size:90px;font-family:Aller;-inkscape-font-specification:'Aller Bold';text-align:center;writing-mode:lr-tb;text-anchor:middle;fill:#ffffff;fill-opacity:1"
         dx="0">Osu!</tspan></text>
    <text
       xml:space="preserve"
       style="font-style:normal;font-variant:normal;font-weight:bold;font-stretch:normal;font-size:90px;font-family:Aller;-inkscape-font-specification:'Aller Bold';text-align:center;writing-mode:lr-tb;direction:ltr;text-anchor:middle;fill:#ffffff;fill-opacity:1"
       x="282.29431"
       y="197.30956"
       id="text1"><tspan
         id="tspan1"
         x="282.29431"
         y="197.30956">7</tspan></text>
  </g>
</svg>
